<?xml version="1.0" encoding="utf-8"?>
<!-- Generator: Adobe Illustrator 19.0.0, SVG Export Plug-In . SVG Version: 6.00 Build 0)  -->
<svg version="1.1" id="Layer_1" xmlns="http://www.w3.org/2000/svg" xmlns:xlink="http://www.w3.org/1999/xlink" x="0px" y="0px"
	 viewBox="0 0 74.3 119.7" style="enable-background:new 0 0 74.3 119.7;" xml:space="preserve">
<style type="text/css">
	.st0{fill:#1BBBB7;}
	.st1{fill:#00AEAD;}
	.st2{fill:#FFFFFF;}
	.st3{fill:#3BAE6B;}
	.st4{fill:#24A65A;}
	.st5{fill:#EF4026;}
	.st6{fill:#EE3224;}
	.st7{fill:#FAB27B;}
</style>
<g id="XMLID_1_">
	<path id="XMLID_19_" class="st0" d="M758.5-609.6c40.3-0.9,82.9,25.8,95.9,71.6c7.8,27.5,3.3,54-8.3,79.5
		c-13,28.4-33.1,51.3-56.4,71.5c-9.4,8.2-19.1,16-30,22.3c-0.7,0.1-1.3-0.1-1.7-0.7c-1-1.4-1.6-2.9-1.6-4.6
		c-0.2-31.9-0.4-63.7,0.1-95.6c0-0.7,0.2-1.3,0.5-1.9c1.2-3.8,4.5-4,7.6-4.5c20.1-3.4,34.1-17.1,37.9-37.1
		c3.3-17.5-6.1-37-21.8-45.5c-5.5-3-11.3-4.8-17.4-5.9c-1.6-0.3-3.3-0.4-4.5-1.8c-2.1-1.6-2.4-3.9-2.4-6.2
		c-0.2-11.8-0.2-23.5,0-35.3C756.3-606,756.4-608.2,758.5-609.6z"/>
	<path id="XMLID_18_" class="st1" d="M758.5-609.6c0,13.4,0,26.9,0,40.3c0,2.3-0.2,4.7,2,6.3c-1.2,2.9-3.8,2.2-6,2.5
		c-23.7,2.4-41.1,22-40.7,45.8c0.3,20.6,16.7,39.3,37.3,42.7c2.7,0.4,5.8,0.3,7.4,3.3c0,32.6,0,65.2,0,97.8c0,2.1-0.4,4.4,1.1,6.2
		c-0.8,1.2-1.6,0.7-2.5,0.1c-38.9-26.9-72.5-58.8-90-104c-13.6-35.2-12-69.6,11.1-100.8C698.1-596,725.2-609.2,758.5-609.6z"/>
	<path id="XMLID_17_" class="st2" d="M758.5-468.7c-28.6-1.8-42.2-20.4-45.8-36.9c-7.1-32.3,19.2-58.6,46.3-57.2
		c0.5,0,1-0.1,1.5-0.1c24.5,1.8,43,19.8,44.8,43.4c1.7,22.9-13.6,43.6-36.5,49.2C765.4-469.5,761.9-469.2,758.5-468.7z"/>
</g>
<g id="XMLID_2_">
	<path id="XMLID_5_" class="st3" d="M198.4-603c40.3-0.9,82.9,25.8,95.9,71.6c7.8,27.5,3.3,54-8.3,79.5
		c-13,28.4-33.1,51.3-56.4,71.5c-9.4,8.2-19.1,16-30,22.3c-0.7,0.1-1.3-0.1-1.7-0.7c-1-1.4-1.6-2.9-1.6-4.6
		c-0.2-31.9-0.4-63.7,0.1-95.6c0-0.7,0.2-1.3,0.5-1.9c1.2-3.8,4.5-4,7.6-4.5c20.1-3.4,34.1-17.1,37.9-37.1
		c3.3-17.5-6.1-37-21.8-45.5c-5.5-3-11.3-4.8-17.4-5.9c-1.6-0.3-3.3-0.4-4.5-1.8c-2.1-1.6-2.4-3.9-2.4-6.2
		c-0.2-11.8-0.2-23.5,0-35.3C196.2-599.4,196.4-601.6,198.4-603z"/>
	<path id="XMLID_4_" class="st4" d="M198.4-603c0,13.4,0,26.9,0,40.3c0,2.3-0.2,4.7,2,6.3c-1.2,2.9-3.8,2.2-6,2.5
		c-23.7,2.4-41.1,22-40.7,45.8c0.3,20.6,16.7,39.3,37.3,42.7c2.7,0.4,5.8,0.3,7.4,3.3c0,32.6,0,65.2,0,97.8c0,2.1-0.4,4.4,1.1,6.2
		c-0.8,1.2-1.6,0.7-2.5,0.1c-38.9-26.9-72.5-58.8-90-104c-13.6-35.2-12-69.6,11.1-100.8C138-589.4,165.2-602.6,198.4-603z"/>
	<path id="XMLID_3_" class="st2" d="M198.4-462.1c-28.6-1.8-42.2-20.4-45.8-36.9c-7.1-32.3,19.2-58.6,46.3-57.2c0.5,0,1-0.1,1.5-0.1
		c24.5,1.8,43,19.8,44.8,43.4c1.7,22.9-13.6,43.6-36.5,49.2C205.4-462.9,201.9-462.6,198.4-462.1z"/>
</g>
<g id="XMLID_6_">
	<path id="XMLID_9_" class="st5" d="M463.4-609.6c40.3-0.9,82.9,25.8,95.9,71.6c7.8,27.5,3.3,54-8.3,79.5
		c-13,28.4-33.1,51.3-56.4,71.5c-9.4,8.2-19.1,16-30,22.3c-0.7,0.1-1.3-0.1-1.7-0.7c-1-1.4-1.6-2.9-1.6-4.6
		c-0.2-31.9-0.4-63.7,0.1-95.6c0-0.7,0.2-1.3,0.5-1.9c1.2-3.8,4.5-4,7.6-4.5c20.1-3.4,34.1-17.1,37.9-37.1
		c3.3-17.5-6.1-37-21.8-45.5c-5.5-3-11.3-4.8-17.4-5.9c-1.6-0.3-3.3-0.4-4.5-1.8c-2.1-1.6-2.4-3.9-2.4-6.2
		c-0.2-11.8-0.2-23.5,0-35.3C461.2-606,461.4-608.2,463.4-609.6z"/>
	<path id="XMLID_8_" class="st6" d="M463.4-609.6c0,13.4,0,26.9,0,40.3c0,2.3-0.2,4.7,2,6.3c-1.2,2.9-3.8,2.2-6,2.5
		c-23.7,2.4-41.1,22-40.7,45.8c0.3,20.6,16.7,39.3,37.3,42.7c2.7,0.4,5.8,0.3,7.4,3.3c0,32.6,0,65.2,0,97.8c0,2.1-0.4,4.4,1.1,6.2
		c-0.8,1.2-1.6,0.7-2.5,0.1c-38.9-26.9-72.5-58.8-90-104c-13.6-35.2-12-69.6,11.1-100.8C403-596,430.2-609.2,463.4-609.6z"/>
	<path id="XMLID_7_" class="st2" d="M463.4-468.7c-28.6-1.8-42.2-20.4-45.8-36.9c-7.1-32.3,19.2-58.6,46.3-57.2c0.5,0,1-0.1,1.5-0.1
		c24.5,1.8,43,19.8,44.8,43.4c1.7,22.9-13.6,43.6-36.5,49.2C470.4-469.5,466.9-469.2,463.4-468.7z"/>
</g>
<g id="XMLID_27_">
	<g id="XMLID_490_">
		<path id="XMLID_507_" class="st4" d="M511.2-49.8c-3,1-3.3-1.9-4.2-3.2c-15.4-20.3-29.3-41.6-41.6-63.9
			c-13.5-24.5-25.1-49.9-31.3-77.4c-4.4-19.6-5.9-39.1,1.3-58.4c11.6-31.3,43.6-53.4,75.1-51.8c1,1,1.4,2.3,1.4,3.6
			c0,9,0.7,18.1-0.4,27.1c-1.7,3.4-5.2,2.7-7.9,3.1c-12.8,2.1-23,8.5-30.8,18.8c-19.2,25.3-5.8,63.9,24.9,72
			c3.1,0.8,6.2,1.3,9.3,1.9c1.8,0.3,3.7,0.5,4.4,2.6c0.7,2.4,0.5,5,0.6,7.4c0,36.4,0,72.9,0,109.3C512-55.7,511.7-52.7,511.2-49.8z"
			/>
		<path id="XMLID_506_" class="st3" d="M510.4-272.8c0-10.6,0-21.2,0-31.8c35.4-1.8,70,25.6,78,61.9c4.5,20.5,1,40.4-4.7,60
			c-10.9,37.2-29.8,70.7-51,102.9c-6.8,10.3-13.7,20.5-21.6,30c-1.3-1.4-0.8-3.2-0.8-4.8c0-40.7,0-81.4,0-122.1
			c3.1-2.3,6.9-1.9,10.4-2.7c21.1-4.9,36.3-24,36.2-45.6c-0.1-21.1-15.2-40-35.8-45C517.7-270.8,513.7-270.4,510.4-272.8z"/>
		<path id="XMLID_505_" class="st2" d="M510.4-272.8c25.3,1.6,43.1,16.9,47.2,40.6c4.3,25.1-13.2,50.1-38.3,54.4
			c-2.9,0.5-5.9,0.7-8.9,1.1c-28-1.7-48.1-22-47.9-48.6C462.6-251,482.8-271.1,510.4-272.8z"/>
	</g>
	<circle id="XMLID_11_" class="st2" cx="512" cy="-221.9" r="50.5"/>
</g>
<g id="XMLID_28_">
	<g id="XMLID_30_">
		<path id="XMLID_33_" class="st6" d="M308.8-79.2c-3,1-3.3-1.9-4.2-3.2c-15.4-20.3-29.3-41.6-41.6-63.9
			c-13.5-24.5-25.1-49.9-31.3-77.4c-4.4-19.6-5.9-39.1,1.3-58.4c11.6-31.3,43.6-53.4,75.1-51.8c1,1,1.4,2.3,1.4,3.6
			c0,9,0.7,18.1-0.4,27.1c-1.7,3.4-5.2,2.7-7.9,3.1c-12.8,2.1-23,8.5-30.8,18.8c-19.2,25.3-5.8,63.9,24.9,72
			c3.1,0.8,6.2,1.3,9.3,1.9c1.8,0.3,3.7,0.5,4.4,2.6c0.7,2.4,0.5,5,0.6,7.4c0,36.4,0,72.9,0,109.3C309.6-85.1,309.3-82.2,308.8-79.2
			z"/>
		<path id="XMLID_32_" class="st5" d="M308-302.2c0-10.6,0-21.2,0-31.8c35.4-1.8,70,25.6,78,61.9c4.5,20.5,1,40.4-4.7,60
			c-10.9,37.2-29.8,70.7-51,102.9c-6.8,10.3-13.7,20.5-21.6,30c-1.3-1.4-0.8-3.2-0.8-4.8c0-40.7,0-81.4,0-122.1
			c3.1-2.3,6.9-1.9,10.4-2.7c21.1-4.9,36.3-24,36.2-45.6c-0.1-21.1-15.2-40-35.8-45C315.2-300.2,311.2-299.9,308-302.2z"/>
		<path id="XMLID_31_" class="st2" d="M308-302.2c25.3,1.6,43.1,16.9,47.2,40.6c4.3,25.1-13.2,50.1-38.3,54.4
			c-2.9,0.5-5.9,0.7-8.9,1.1c-28-1.7-48.1-22-47.9-48.6C260.1-280.5,280.4-300.5,308-302.2z"/>
	</g>
	<circle id="XMLID_29_" class="st2" cx="309.6" cy="-251.4" r="50.5"/>
</g>
<path id="XMLID_191_" class="st4" d="M-177.9-511.5c6,0,11.9,2.7,16.2,7c4.3,4.9,7,10.3,7,16.8c0,6.5-2.7,13.5-7,17.9l-16.2,16.8
	l-16.2-16.8c-4.3-4.3-7-10.8-7-17.9c0-6.5,2.2-11.9,7-16.8C-189.8-508.8-183.8-511.5-177.9-511.5z"/>
<path id="XMLID_198_" class="st2" d="M-177.9-437.4l-23.8-24.9c-6.5-6.5-10.3-15.7-10.3-25.4c0-9.2,3.2-17.3,9.7-24.3
	c7-6.5,15.2-9.7,24.3-9.7c9.2,0,17.3,3.8,23.8,10.3s9.7,15.2,9.7,24.3s-3.8,18.9-9.7,25.4L-177.9-437.4z M-199.5-465l21.6,22.2
	l21.1-22.2c5.4-6,8.7-14.1,8.7-22.7c0-8.1-3.2-15.7-8.7-21.6c-5.4-6-13-9.2-21.1-9.2s-15.7,3.2-21.6,9.2c-5.4,6-8.7,13.5-8.7,21.6
	C-208.2-479.1-204.9-470.4-199.5-465L-199.5-465z"/>
<path id="XMLID_193_" class="st2" d="M-177.9-436.3l-24.3-25.4c-6.5-6.5-10.3-16.2-10.3-26c0-9.2,3.2-17.9,10.3-24.9
	c6.5-6.5,15.2-10.3,24.3-10.3c9.2,0,17.9,3.8,24.3,10.3c6.5,7,10.3,15.7,10.3,24.9c0,9.7-3.8,19.5-10.3,26L-177.9-436.3z
	 M-177.9-521.3c-8.7,0-17.3,3.8-23.3,10.3c-6.5,6.5-9.7,14.6-9.7,23.3c0,9.2,3.8,18.4,9.7,24.3l23.3,24.3l23.3-24.3
	c6-6.5,9.7-15.7,9.7-24.3c0-8.7-3.2-16.8-9.7-23.8C-161.1-517.5-169.2-521.3-177.9-521.3z M-177.9-441.2l-22.2-22.7
	c-5.4-6.5-9.2-15.2-9.2-23.8s3.2-16.2,9.2-22.2s14.1-9.2,22.2-9.2c8.1,0,16.2,3.2,22.2,9.2c6,6,9.2,14.1,9.2,22.2
	c0,8.7-3.2,17.3-9.2,23.3L-177.9-441.2z M-198.4-465.5l20.6,21.6l20.6-21.6c5.4-5.4,8.7-14.1,8.7-22.2c0-8.1-3.2-15.2-8.7-21.1
	c-5.4-5.4-13-8.7-20.6-8.7c-7.6,0-15.2,3.2-20.6,8.7c-5.4,6-8.7,13-8.7,21.1C-207.1-479.1-203.8-470.9-198.4-465.5L-198.4-465.5z"/>
<path id="XMLID_228_" class="st6" d="M-85.9-512.6c6,0,11.9,2.7,16.2,7c4.3,4.9,7,10.3,7,16.8c0,6.5-2.7,13.5-7,17.9l-16.2,16.8
	l-16.2-16.8c-4.3-4.3-7-10.8-7-17.9c0-6.5,2.2-11.9,7-16.8C-97.8-509.9-91.8-512.6-85.9-512.6z"/>
<path id="XMLID_225_" class="st7" d="M-85.9-438.5l-23.8-24.9c-6.5-6.5-10.3-15.7-10.3-25.4c0-9.2,3.2-17.3,9.7-24.3
	c7-6.5,15.2-9.7,24.3-9.7s17.3,3.8,23.8,10.3s9.7,15.2,9.7,24.3s-3.8,18.9-9.7,25.4L-85.9-438.5z M-107.5-466.1l21.6,22.2l21.1-22.2
	c5.4-6,8.7-14.1,8.7-22.7c0-8.1-3.2-15.7-8.7-21.6c-5.4-6-13-9.2-21.1-9.2s-15.7,3.2-21.6,9.2c-5.4,6-8.7,13.5-8.7,21.6
	C-116.2-480.1-112.9-471.5-107.5-466.1L-107.5-466.1z"/>
<path id="XMLID_220_" class="st7" d="M-85.9-437.4l-24.3-25.4c-6.5-6.5-10.3-16.2-10.3-26c0-9.2,3.2-17.9,10.3-24.9
	c6.5-6.5,15.2-10.3,24.3-10.3s17.9,3.8,24.3,10.3c6.5,7,10.3,15.7,10.3,24.9c0,9.7-3.8,19.5-10.3,26L-85.9-437.4z M-85.9-522.3
	c-8.7,0-17.3,3.8-23.3,10.3c-6.5,6.5-9.7,14.6-9.7,23.3c0,9.2,3.8,18.4,9.7,24.3l23.3,24.3l23.3-24.3c6-6.5,9.7-15.7,9.7-24.3
	c0-8.7-3.2-16.8-9.7-23.8C-69.1-518.6-77.2-522.3-85.9-522.3z M-85.9-442.3l-22.2-22.7c-5.4-6.5-9.2-15.2-9.2-23.8
	s3.2-16.2,9.2-22.2s14.1-9.2,22.2-9.2s16.2,3.2,22.2,9.2s9.2,14.1,9.2,22.2c0,8.7-3.2,17.3-9.2,23.3L-85.9-442.3z M-106.4-466.6
	l20.6,21.6l20.6-21.6c5.4-5.4,8.7-14.1,8.7-22.2c0-8.1-3.2-15.2-8.7-21.1c-5.4-5.4-13-8.7-20.6-8.7s-15.2,3.2-20.6,8.7
	c-5.4,6-8.7,13-8.7,21.1C-115.1-480.1-111.8-472-106.4-466.6L-106.4-466.6z"/>
<g id="XMLID_10_">
	<path id="XMLID_46_" class="st6" d="M34.7,0c1.5,0,3,0,4.5,0c0.2,0.1,0.5,0.1,0.7,0.2C45.6,0.6,51,2.1,55.9,5
		c9.9,5.9,16,14.4,17.9,25.9c0.2,1.1,0.3,2.2,0.5,3.4c0,1.5,0,3,0,4.5c-0.1,0.3-0.1,0.6-0.2,0.9c-0.3,3.3-1,6.4-2.3,9.4
		c-2.1,4.7-4.4,9.4-7.2,13.8c-4.3,6.8-8.7,13.5-12.9,20.4c-5.3,8.8-9.6,18.2-12.4,28.1c-0.8,2.7-1.4,5.5-2.1,8.3
		c-0.1-0.2-0.1-0.4-0.1-0.5c-1.2-5.5-2.8-10.9-4.7-16.1c-3.7-9.8-8.7-18.9-14.4-27.6c-4.7-7.2-9.4-14.3-13.4-21.9
		c-4-7.3-5.4-15.1-4-23.3C3,15.4,15.1,3.2,30.1,0.7C31.6,0.4,33.2,0.2,34.7,0z M37.2,22.8c-7.2,0-13,5.8-13.1,13
		c-0.1,7.1,5.9,13.1,13,13.1c7.1,0,13.1-5.9,13.1-13C50.2,28.7,44.3,22.8,37.2,22.8z"/>
	<path id="XMLID_43_" class="st2" d="M37.2,22.8c7.2,0,13.1,5.9,13,13.1c0,7.2-5.9,13.1-13.1,13c-7.1,0-13.1-6-13-13.1
		C24.1,28.6,30,22.8,37.2,22.8z"/>
</g>
</svg>